# xmcd CD database file
#
# Track frame offsets:
#	150
#	5272
#	39688
#	103885
#	148006
#	189041
#	244988
#	283057
#	302454
#	324899
#
# Disc length: 4431 seconds
#
# Revision: 0
# Processed by: cddbd v1.5.2PL0 Copyright (c) Steve Scherf et al.
# Submitted via: CDex 1.51
#
DISCID=81114d0a
DTITLE=Abraham-Hicks - 11-10-07 - Orlando, FL
DYEAR=2007
DGENRE=New Age
TTITLE0=Abraham-Hicks Publications
TTITLE1=You are multifaceted Beings
TTITLE2=Relief, and Law of Attraction
TTITLE3=Do desires cause suffering?
TTITLE4=Fears child's driving lessons
TTITLE5=Environment vs. our reality?
TTITLE6=What about those "channelers"?
TTITLE7=She's feeling a bit too pudgy
TTITLE8=Our appreciation vs. gratitude?
TTITLE9=Orlando, FL Workshop closing
EXTD=YEAR: 2007
EXTT0=
EXTT1=
EXTT2=
EXTT3=
EXTT4=
EXTT5=
EXTT6=
EXTT7=
EXTT8=
EXTT9=
PLAYORDER=
